<?xml version="1.0" encoding="UTF-8" standalone="no"?>
<!-- Created with Inkscape (http://www.inkscape.org/) -->

<svg
   xmlns:dc="http://purl.org/dc/elements/1.1/"
   xmlns:cc="http://creativecommons.org/ns#"
   xmlns:rdf="http://www.w3.org/1999/02/22-rdf-syntax-ns#"
   xmlns:svg="http://www.w3.org/2000/svg"
   xmlns="http://www.w3.org/2000/svg"
   xmlns:sodipodi="http://sodipodi.sourceforge.net/DTD/sodipodi-0.dtd"
   xmlns:inkscape="http://www.inkscape.org/namespaces/inkscape"
   width="210mm"
   height="297mm"
   viewBox="0 0 210 297"
   version="1.1"
   id="svg8"
   inkscape:version="0.92.2 5c3e80d, 2017-08-06"
   sodipodi:docname="drawingrandschnitt.svg">
  <defs
     id="defs2" />
  <sodipodi:namedview
     id="base"
     pagecolor="#ffffff"
     bordercolor="#666666"
     borderopacity="1.0"
     inkscape:pageopacity="0.0"
     inkscape:pageshadow="2"
     inkscape:zoom="0.48373316"
     inkscape:cx="396.85039"
     inkscape:cy="561.25984"
     inkscape:document-units="mm"
     inkscape:current-layer="layer1"
     showgrid="false"
     inkscape:window-width="1280"
     inkscape:window-height="756"
     inkscape:window-x="0"
     inkscape:window-y="0"
     inkscape:window-maximized="1" />
  <metadata
     id="metadata5">
    <rdf:RDF>
      <cc:Work
         rdf:about="">
        <dc:format>image/svg+xml</dc:format>
        <dc:type
           rdf:resource="http://purl.org/dc/dcmitype/StillImage" />
        <dc:title></dc:title>
      </cc:Work>
    </rdf:RDF>
  </metadata>
  <g
     inkscape:label="Layer 1"
     inkscape:groupmode="layer"
     id="layer1">
    <path
       style="fill:none;stroke:#000000;stroke-width:0.26458332px;stroke-linecap:butt;stroke-linejoin:miter;stroke-opacity:1"
       d="m 70.063473,31.320038 v 0 H 90.03848 v 4.994011 h 4.993494 v 4.9935 h 4.993496 v 9.987499 h 4.99401 v 9.987499 h 4.9935 v 9.986989 h 4.99401 v 4.994011 h 4.99349 v 4.993489 h 4.99349 v -4.993489 h 4.99401 l -2e-5,-9.987529 -4.99399,2.9e-5 V 51.295048 h 4.99401 V 36.314049 h 4.9935 v -4.994011 h 4.99349 v 4.994011 h 4.99401 v 4.9935 h 4.9935 v 9.987499 h 4.99349 v 14.980999 h -4.99349 v 4.993489 h -4.9935 v 9.9875 h -4.99401 v 9.98751 h -4.99349 v 4.993492 h -4.9935 v 4.994012 h -4.99401 v 4.99349 h -4.99349 v 9.98751 h -4.99349 v 4.99349 h -14.98152 v -4.99349 h -4.993496 v -4.99401 l -4.993542,4e-5 v -4.9935 h -4.99401 v -4.99334 l -9.986984,-1.5e-4 4.5e-5,-4.994052 h -4.99401 v -4.993492 l 4.993965,4e-5 v -9.987511 h -4.994013 v -4.993489 l -9.987457,-3.9e-5 v -4.994011 h -4.993492 v -4.993489 h -4.993491 l 0.04679,-7.421001 -0.04679,-2.566509 h 4.993491 v -4.993489 h 4.993492 v -9.987499 h 4.99401 v -4.9935 h 4.993495 z"
       id="path878"
       inkscape:connector-curvature="0" />
    <path
       style="fill:none;stroke:#000000;stroke-width:0.26458332px;stroke-linecap:butt;stroke-linejoin:miter;stroke-opacity:1"
       d="M 41.82523,97.819264 Z"
       id="path880"
       inkscape:connector-curvature="0" />
  </g>
</svg>
